<?xml version="1.0" encoding="UTF-8" standalone="no"?>
<!-- Created with Inkscape (http://www.inkscape.org/) -->

<svg
   xmlns:dc="http://purl.org/dc/elements/1.1/"
   xmlns:cc="http://creativecommons.org/ns#"
   xmlns:rdf="http://www.w3.org/1999/02/22-rdf-syntax-ns#"
   xmlns:svg="http://www.w3.org/2000/svg"
   xmlns="http://www.w3.org/2000/svg"
   xmlns:xlink="http://www.w3.org/1999/xlink"
   xmlns:sodipodi="http://sodipodi.sourceforge.net/DTD/sodipodi-0.dtd"
   xmlns:inkscape="http://www.inkscape.org/namespaces/inkscape"
   id="svg2816"
   version="1.1"
   inkscape:version="0.47 r22583"
   width="219.68533"
   height="34.0755"
   xml:space="preserve"
   sodipodi:docname="Compaq.pdf"><metadata
     id="metadata2822"><rdf:RDF><cc:Work
         rdf:about=""><dc:format>image/svg+xml</dc:format><dc:type
           rdf:resource="http://purl.org/dc/dcmitype/StillImage" /><dc:title></dc:title></cc:Work></rdf:RDF></metadata><defs
     id="defs2820"><linearGradient
       id="linearGradient2870"><stop
         style="stop-color:#ffee00;stop-opacity:1;"
         offset="0"
         id="stop2872" /><stop
         style="stop-color:#ff3300;stop-opacity:1;"
         offset="1"
         id="stop2874" /></linearGradient><inkscape:perspective
       sodipodi:type="inkscape:persp3d"
       inkscape:vp_x="0 : 0.5 : 1"
       inkscape:vp_y="0 : 1000 : 0"
       inkscape:vp_z="1 : 0.5 : 1"
       inkscape:persp3d-origin="0.5 : 0.33333333 : 1"
       id="perspective2824" /><linearGradient
       inkscape:collect="always"
       xlink:href="#linearGradient2870"
       id="linearGradient2876"
       x1="212.2251"
       y1="409.77631"
       x2="380.4288"
       y2="409.42679"
       gradientUnits="userSpaceOnUse" /></defs><sodipodi:namedview
     pagecolor="#ffffff"
     bordercolor="#666666"
     borderopacity="1"
     objecttolerance="10"
     gridtolerance="10"
     guidetolerance="10"
     inkscape:pageopacity="0"
     inkscape:pageshadow="2"
     inkscape:window-width="640"
     inkscape:window-height="481"
     id="namedview2818"
     showgrid="false"
     inkscape:zoom="0.97501663"
     inkscape:cx="109.6705"
     inkscape:cy="17.106493"
     inkscape:window-x="0"
     inkscape:window-y="0"
     inkscape:window-maximized="0"
     inkscape:current-layer="g2826" /><g
     id="g2826"
     inkscape:groupmode="layer"
     inkscape:label="Compaq"
     transform="matrix(1.25,0,0,-1.25,-262.2045,543.219)"><path
       id="path2832"
       style="fill:url(#linearGradient2876);fill-opacity:1;fill-rule:evenodd;stroke:none"
       d="m 209.7636,407.3148 0,4.224 170.6652,0 -2.016,-4.224 -168.6492,0" /><path
       id="path2834"
       style="fill:#808080;fill-opacity:1;fill-rule:evenodd;stroke:none"
       d="m 300.4716,434.5752 -2.256,-4.992 -6.1908,0 -3.744,-8.3508 6.144,0 -2.304,-4.9908 -6.144,0 c -3.1668,0 -3.9348,1.728 -2.4948,4.9908 l 3.9348,8.64 c 1.44,3.2628 2.496,4.7028 7.008,4.7028 l 6.0468,0" /><path
       id="path2836"
       style="fill:#808080;fill-opacity:1;fill-rule:evenodd;stroke:none"
       d="m 310.4544,416.2416 6.2388,13.6308 c 1.44,3.2628 2.496,4.7028 7.0068,4.7028 l 10.7508,0 c 3.072,0 3.552,-2.592 2.592,-4.7028 -0.96,-2.112 -6.24,-13.6308 -6.24,-13.6308 l -4.7988,0 6.1428,13.3416 -2.9268,0 -6.096,-13.3416 -4.7988,0 6.0948,13.3416 -3.168,0 -5.9988,-13.3416 -4.7988,0" /><path
       id="path2838"
       style="fill:#808080;fill-opacity:1;fill-rule:evenodd;stroke:none"
       d="m 333.1068,416.2416 6.24,13.6308 c 0.7668,1.7748 2.2068,4.7028 6.9108,4.7028 l 4.7028,0 c 2.928,0 3.9348,-1.824 2.64,-4.7028 l -1.872,-4.224 c -1.152,-2.496 -1.584,-3.7428 -6.5268,-3.7428 l -2.544,0 1.68,3.7428 2.592,0 1.8228,3.9348 -4.7508,0 -6.0948,-13.3416 -4.8,0" /><path
       id="path2840"
       style="fill:#808080;fill-opacity:1;fill-rule:evenodd;stroke:none"
       d="m 346.8336,416.2416 5.4228,0 8.8788,13.2936 -0.528,-6.1908 -1.536,0 -2.448,-3.7428 3.648,0 -0.24,-3.36 4.224,0 1.5348,18.3336 -5.8068,0 -13.1496,-18.3336" /><path
       id="path2842"
       style="fill:#808080;fill-opacity:1;fill-rule:evenodd;stroke:none"
       d="m 302.4384,421.2324 -1.2948,0 3.7908,8.3508 4.512,0 -3.792,-8.3508 -3.216,0 z m 0,-4.9908 0.9132,0 c 2.8788,0 5.0868,0.576 7.0068,4.8948 l 4.0308,8.736 c 0.864,1.9188 1.248,4.7028 -2.5908,4.7028 l -4.512,0 c -4.5108,0 -5.568,-1.44 -7.0068,-4.7028 l -3.9348,-8.64 c -1.44,-3.2628 -0.6732,-4.9908 2.4948,-4.9908 l 3.5988,0" /><path
       id="path2844"
       style="fill:#808080;fill-opacity:1;fill-rule:evenodd;stroke:none"
       d="m 374.574,421.2324 -2.688,0 3.7908,8.3508 4.512,0 -3.792,-8.3508 -1.8228,0 z m 0,-4.9908 7.8708,0 2.3988,4.9908 -3.7428,0 3.8388,8.64 c 0.864,1.9188 1.248,4.7028 -2.592,4.7028 l -4.5108,0 c -4.5108,0 -5.5668,-1.44 -7.0068,-4.7028 l -3.936,-8.64 c -1.4388,-3.2628 -0.672,-4.9908 2.496,-4.9908 l 5.184,0" /></g></svg>